<svg width="105" height="31" viewBox="0 0 105 31" fill="none" xmlns="http://www.w3.org/2000/svg">
<path d="M9.34619 3.65873C10.5694 3.65873 11.7668 3.84032 12.9358 4.20219C14.1073 4.56145 14.9763 4.91549 15.5426 5.263L16.3649 5.81691L14.2806 9.97129C14.1177 9.86416 13.89 9.72307 13.5979 9.54801C13.3043 9.37033 12.756 9.13388 11.953 8.83733C11.1487 8.54208 10.3988 8.39314 9.70309 8.39314C8.84453 8.39314 8.18248 8.57866 7.71698 8.94706C7.25148 9.31677 7.01872 9.81452 7.01872 10.4416C7.01872 10.759 7.12735 11.0517 7.34458 11.3195C7.5644 11.5847 7.93938 11.8708 8.46696 12.1765C8.9971 12.4796 9.46516 12.7239 9.86859 12.9081C10.272 13.0936 10.8928 13.3706 11.7306 13.739C13.1918 14.366 14.4383 15.2205 15.4702 16.2995C16.5046 17.3799 17.0218 18.604 17.0218 19.9731C17.0218 21.2835 16.7891 22.4279 16.3236 23.4064C15.8581 24.3861 15.218 25.1517 14.4047 25.7057C13.5901 26.2596 12.6901 26.6711 11.7047 26.9389C10.7182 27.2067 9.64879 27.3413 8.49798 27.3413C7.51138 27.3413 6.54288 27.2381 5.59119 27.033C4.64209 26.8318 3.84815 26.5784 3.20678 26.2752C2.56801 25.9696 1.9926 25.6677 1.47926 25.3712C0.968505 25.076 0.594808 24.8265 0.356884 24.6239L0 24.3209L2.57577 19.9417C2.7956 20.1273 3.09817 20.3638 3.48092 20.6524C3.86366 20.9385 4.54252 21.3214 5.51877 21.8021C6.49762 22.2803 7.36268 22.5181 8.11524 22.5181C10.2876 22.5181 11.3737 21.7708 11.3737 20.2763C11.3737 19.9627 11.2962 19.6727 11.141 19.4035C10.9858 19.1357 10.7117 18.8679 10.3187 18.5988C9.92549 18.331 9.57894 18.1181 9.27903 17.9613C8.97901 17.8045 8.48505 17.5667 7.79974 17.2453C7.11312 16.9214 6.60624 16.6758 6.2791 16.5085C4.90587 15.8266 3.84556 14.9722 3.09817 13.948C2.34948 12.9238 1.97579 11.8212 1.97579 10.6402C1.97579 8.58911 2.72318 6.91298 4.22055 5.61311C5.72049 4.31062 7.42862 3.65873 9.34619 3.65873Z" fill="black"/>
<mask id="mask0_3_18" style="mask-type:alpha" maskUnits="userSpaceOnUse" x="0" y="3" width="18" height="25">
<path d="M9.34619 3.65873C10.5694 3.65873 11.7668 3.84032 12.9358 4.20219C14.1073 4.56145 14.9763 4.91549 15.5426 5.263L16.3649 5.81691L14.2806 9.97129C14.1177 9.86416 13.89 9.72307 13.5979 9.54801C13.3043 9.37033 12.756 9.13388 11.953 8.83733C11.1487 8.54208 10.3988 8.39314 9.70309 8.39314C8.84453 8.39314 8.18248 8.57866 7.71698 8.94706C7.25148 9.31677 7.01872 9.81452 7.01872 10.4416C7.01872 10.759 7.12735 11.0517 7.34458 11.3195C7.5644 11.5847 7.93938 11.8708 8.46696 12.1765C8.9971 12.4796 9.46516 12.7239 9.86859 12.9081C10.272 13.0936 10.8928 13.3706 11.7306 13.739C13.1918 14.366 14.4383 15.2205 15.4702 16.2995C16.5046 17.3799 17.0218 18.604 17.0218 19.9731C17.0218 21.2835 16.7891 22.4279 16.3236 23.4064C15.8581 24.3861 15.218 25.1517 14.4047 25.7057C13.5901 26.2596 12.6901 26.6711 11.7047 26.9389C10.7182 27.2067 9.64879 27.3413 8.49798 27.3413C7.51138 27.3413 6.54288 27.2381 5.59119 27.033C4.64209 26.8318 3.84815 26.5784 3.20678 26.2752C2.56801 25.9696 1.9926 25.6677 1.47926 25.3712C0.968505 25.076 0.594808 24.8265 0.356884 24.6239L0 24.3209L2.57577 19.9417C2.7956 20.1273 3.09817 20.3638 3.48092 20.6524C3.86366 20.9385 4.54252 21.3214 5.51877 21.8021C6.49762 22.2803 7.36268 22.5181 8.11524 22.5181C10.2876 22.5181 11.3737 21.7708 11.3737 20.2763C11.3737 19.9627 11.2962 19.6727 11.141 19.4035C10.9858 19.1357 10.7117 18.8679 10.3187 18.5988C9.92549 18.331 9.57894 18.1181 9.27903 17.9613C8.97901 17.8045 8.48505 17.5667 7.79974 17.2453C7.11312 16.9214 6.60624 16.6758 6.2791 16.5085C4.90587 15.8266 3.84556 14.9722 3.09817 13.948C2.34948 12.9238 1.97579 11.8212 1.97579 10.6402C1.97579 8.58911 2.72318 6.91298 4.22055 5.61311C5.72049 4.31062 7.42862 3.65873 9.34619 3.65873Z" fill="black"/>
</mask>
<g mask="url(#mask0_3_18)">
<path d="M20.0115 10.2792H16.8106C11.3321 9.06562 10.1125 7.81439 8.92649 2.19854V-0.949194H8.52157V2.23131C7.33879 7.81929 6.11441 9.06726 0.645496 10.2792H-1.68964V10.6935H0.645496C6.11441 11.9038 7.33879 13.1518 8.52157 18.7398V21.863H8.92649V18.7725C10.1125 13.1583 11.3321 11.9071 16.8106 10.6935H20.0115V10.2792Z" fill="white"/>
</g>
<path d="M24.1077 25.2669C23.2059 25.2669 22.4023 25.1104 21.6968 24.7976C20.9913 24.4786 20.4331 24.0093 20.0221 23.3897C19.6172 22.7639 19.4148 21.9848 19.4148 21.0524C19.4148 20.2672 19.5589 19.6077 19.8472 19.074C20.1356 18.5403 20.5282 18.1108 21.0251 17.7857C21.522 17.4606 22.0864 17.2152 22.7182 17.0496C23.3562 16.8839 24.0249 16.7674 24.7243 16.6999C25.5463 16.614 26.2088 16.5343 26.7119 16.4606C27.2149 16.3809 27.5799 16.2643 27.8069 16.111C28.0339 15.9576 28.1474 15.7306 28.1474 15.43V15.3748C28.1474 14.792 27.9633 14.3411 27.5952 14.0221C27.2333 13.7031 26.718 13.5436 26.0493 13.5436C25.3438 13.5436 24.7825 13.7001 24.3654 14.0129C23.9482 14.3197 23.6722 14.7061 23.5372 15.1724L19.9117 14.8779C20.0957 14.0191 20.4576 13.2768 20.9975 12.651C21.5373 12.0192 22.2336 11.5346 23.0863 11.1971C23.9452 10.8536 24.939 10.6818 26.0677 10.6818C26.853 10.6818 27.6044 10.7739 28.3222 10.9579C29.0461 11.1419 29.6871 11.4272 30.2454 11.8137C30.8098 12.2002 31.2545 12.6971 31.5797 13.3044C31.9048 13.9056 32.0674 14.6264 32.0674 15.4668V25H28.3498V23.04H28.2394C28.0124 23.4817 27.7087 23.8712 27.3284 24.2086C26.948 24.5399 26.491 24.8006 25.9573 24.9908C25.4236 25.1748 24.8071 25.2669 24.1077 25.2669ZM25.2304 22.5615C25.807 22.5615 26.3162 22.448 26.7579 22.221C27.1996 21.9879 27.5462 21.675 27.7977 21.2824C28.0492 20.8898 28.175 20.4451 28.175 19.9482V18.4482C28.0523 18.528 27.8836 18.6016 27.6689 18.6691C27.4603 18.7304 27.2241 18.7887 26.9603 18.8439C26.6965 18.893 26.4327 18.939 26.169 18.982C25.9052 19.0188 25.6659 19.0525 25.4512 19.0832C24.9911 19.1507 24.5893 19.258 24.2458 19.4052C23.9022 19.5525 23.6354 19.7518 23.4452 20.0034C23.255 20.2488 23.1599 20.5555 23.1599 20.9236C23.1599 21.4573 23.3532 21.8652 23.7396 22.1474C24.1323 22.4235 24.6292 22.5615 25.2304 22.5615ZM35.1086 25V10.8659H39.0286V25H35.1086ZM37.0778 9.0439C36.495 9.0439 35.995 8.85066 35.5779 8.46418C35.1669 8.07157 34.9614 7.60227 34.9614 7.05629C34.9614 6.51645 35.1669 6.05328 35.5779 5.66681C35.995 5.27419 36.495 5.07788 37.0778 5.07788C37.6606 5.07788 38.1575 5.27419 38.5685 5.66681C38.9857 6.05328 39.1942 6.51645 39.1942 7.05629C39.1942 7.60227 38.9857 8.07157 38.5685 8.46418C38.1575 8.85066 37.6606 9.0439 37.0778 9.0439ZM49.6867 10.8659V13.8105H41.175V10.8659H49.6867ZM43.1074 7.47958H47.0274V20.6567C47.0274 21.0186 47.0826 21.3008 47.193 21.5033C47.3034 21.6996 47.4568 21.8376 47.6531 21.9174C47.8555 21.9971 48.0886 22.037 48.3524 22.037C48.5365 22.037 48.7205 22.0217 48.9045 21.991C49.0886 21.9542 49.2297 21.9266 49.3278 21.9082L49.9444 24.8252C49.7481 24.8865 49.472 24.9571 49.1162 25.0368C48.7604 25.1227 48.3279 25.1748 47.8187 25.1932C46.874 25.23 46.0458 25.1043 45.3342 24.816C44.6287 24.5276 44.0797 24.0798 43.6871 23.4725C43.2945 22.8652 43.1012 22.0983 43.1074 21.172V7.47958ZM56.2707 25.2669C55.3689 25.2669 54.5653 25.1104 53.8598 24.7976C53.1543 24.4786 52.596 24.0093 52.185 23.3897C51.7801 22.7639 51.5777 21.9848 51.5777 21.0524C51.5777 20.2672 51.7219 19.6077 52.0102 19.074C52.2985 18.5403 52.6911 18.1108 53.188 17.7857C53.6849 17.4606 54.2493 17.2152 54.8812 17.0496C55.5192 16.8839 56.1879 16.7674 56.8872 16.6999C57.7092 16.614 58.3718 16.5343 58.8748 16.4606C59.3778 16.3809 59.7429 16.2643 59.9698 16.111C60.1968 15.9576 60.3103 15.7306 60.3103 15.43V15.3748C60.3103 14.792 60.1263 14.3411 59.7582 14.0221C59.3963 13.7031 58.8809 13.5436 58.2123 13.5436C57.5068 13.5436 56.9455 13.7001 56.5283 14.0129C56.1112 14.3197 55.8351 14.7061 55.7002 15.1724L52.0746 14.8779C52.2586 14.0191 52.6206 13.2768 53.1604 12.651C53.7003 12.0192 54.3966 11.5346 55.2493 11.1971C56.1081 10.8536 57.1019 10.6818 58.2307 10.6818C59.0159 10.6818 59.7674 10.7739 60.4851 10.9579C61.209 11.1419 61.8501 11.4272 62.4083 11.8137C62.9727 12.2002 63.4175 12.6971 63.7426 13.3044C64.0677 13.9056 64.2303 14.6264 64.2303 15.4668V25H60.5127V23.04H60.4023C60.1753 23.4817 59.8717 23.8712 59.4913 24.2086C59.111 24.5399 58.654 24.8006 58.1203 24.9908C57.5865 25.1748 56.97 25.2669 56.2707 25.2669ZM57.3933 22.5615C57.97 22.5615 58.4791 22.448 58.9208 22.221C59.3625 21.9879 59.7091 21.675 59.9606 21.2824C60.2122 20.8898 60.3379 20.4451 60.3379 19.9482V18.4482C60.2152 18.528 60.0465 18.6016 59.8318 18.6691C59.6232 18.7304 59.387 18.7887 59.1233 18.8439C58.8595 18.893 58.5957 18.939 58.3319 18.982C58.0681 19.0188 57.8289 19.0525 57.6141 19.0832C57.1541 19.1507 56.7522 19.258 56.4087 19.4052C56.0652 19.5525 55.7983 19.7518 55.6081 20.0034C55.418 20.2488 55.3229 20.5555 55.3229 20.9236C55.3229 21.4573 55.5161 21.8652 55.9026 22.1474C56.2952 22.4235 56.7921 22.5615 57.3933 22.5615ZM67.2715 25V10.8659H71.0075V13.3596H71.1732C71.4676 12.5314 71.9584 11.8781 72.6455 11.3996C73.3325 10.9211 74.1546 10.6818 75.1116 10.6818C76.0808 10.6818 76.9059 10.9242 77.5869 11.4088C78.2678 11.8873 78.7218 12.5376 78.9488 13.3596H79.096C79.3843 12.5498 79.9058 11.9026 80.6603 11.418C81.421 10.9272 82.3197 10.6818 83.3565 10.6818C84.6754 10.6818 85.7459 11.1021 86.5679 11.9425C87.3961 12.7768 87.8102 13.9608 87.8102 15.4944V25H83.8994V16.2674C83.8994 15.4822 83.6908 14.8932 83.2737 14.5006C82.8565 14.108 82.3351 13.9117 81.7093 13.9117C80.9977 13.9117 80.4425 14.1387 80.0438 14.5926C79.645 15.0405 79.4457 15.6325 79.4457 16.3686V25H75.6453V16.1846C75.6453 15.4914 75.4459 14.9393 75.0472 14.5282C74.6545 14.1172 74.1362 13.9117 73.492 13.9117C73.0565 13.9117 72.6639 14.0221 72.3142 14.243C71.9706 14.4577 71.6977 14.7614 71.4952 15.154C71.2928 15.5404 71.1916 15.9944 71.1916 16.5158V25H67.2715ZM94.9371 25.2669C94.0353 25.2669 93.2316 25.1104 92.5262 24.7976C91.8207 24.4786 91.2624 24.0093 90.8514 23.3897C90.4465 22.7639 90.2441 21.9848 90.2441 21.0524C90.2441 20.2672 90.3882 19.6077 90.6766 19.074C90.9649 18.5403 91.3575 18.1108 91.8544 17.7857C92.3513 17.4606 92.9157 17.2152 93.5476 17.0496C94.1856 16.8839 94.8542 16.7674 95.5536 16.6999C96.3756 16.614 97.0382 16.5343 97.5412 16.4606C98.0442 16.3809 98.4092 16.2643 98.6362 16.111C98.8632 15.9576 98.9767 15.7306 98.9767 15.43V15.3748C98.9767 14.792 98.7927 14.3411 98.4246 14.0221C98.0626 13.7031 97.5473 13.5436 96.8787 13.5436C96.1732 13.5436 95.6119 13.7001 95.1947 14.0129C94.7776 14.3197 94.5015 14.7061 94.3665 15.1724L90.741 14.8779C90.925 14.0191 91.287 13.2768 91.8268 12.651C92.3667 12.0192 93.0629 11.5346 93.9156 11.1971C94.7745 10.8536 95.7683 10.6818 96.8971 10.6818C97.6823 10.6818 98.4338 10.7739 99.1515 10.9579C99.8754 11.1419 100.516 11.4272 101.075 11.8137C101.639 12.2002 102.084 12.6971 102.409 13.3044C102.734 13.9056 102.897 14.6264 102.897 15.4668V25H99.1791V23.04H99.0687C98.8417 23.4817 98.5381 23.8712 98.1577 24.2086C97.7774 24.5399 97.3203 24.8006 96.7866 24.9908C96.2529 25.1748 95.6364 25.2669 94.9371 25.2669ZM96.0597 22.5615C96.6363 22.5615 97.1455 22.448 97.5872 22.221C98.0289 21.9879 98.3755 21.675 98.627 21.2824C98.8785 20.8898 99.0043 20.4451 99.0043 19.9482V18.4482C98.8816 18.528 98.7129 18.6016 98.4982 18.6691C98.2896 18.7304 98.0534 18.7887 97.7896 18.8439C97.5259 18.893 97.2621 18.939 96.9983 18.982C96.7345 19.0188 96.4952 19.0525 96.2805 19.0832C95.8204 19.1507 95.4186 19.258 95.0751 19.4052C94.7315 19.5525 94.4647 19.7518 94.2745 20.0034C94.0843 20.2488 93.9893 20.5555 93.9893 20.9236C93.9893 21.4573 94.1825 21.8652 94.569 22.1474C94.9616 22.4235 95.4585 22.5615 96.0597 22.5615Z" fill="black"/>
</svg>
