<svg width="126" height="31" viewBox="0 0 126 31" fill="none" xmlns="http://www.w3.org/2000/svg">
<path d="M9.34619 4C10.5694 4 11.7668 4.18159 12.9358 4.54347C14.1073 4.90273 14.9763 5.25676 15.5426 5.60427L16.3649 6.15819L14.2806 10.3126C14.1177 10.2054 13.89 10.0643 13.5979 9.88928C13.3043 9.71161 12.756 9.47515 11.953 9.1786C11.1487 8.88335 10.3988 8.73442 9.70309 8.73442C8.84453 8.73442 8.18248 8.91993 7.71698 9.28833C7.25148 9.65805 7.01872 10.1558 7.01872 10.7829C7.01872 11.1003 7.12735 11.393 7.34458 11.6608C7.5644 11.926 7.93938 12.2121 8.46696 12.5178C8.9971 12.8209 9.46516 13.0652 9.86859 13.2494C10.272 13.4349 10.8928 13.7118 11.7306 14.0802C13.1918 14.7073 14.4383 15.5617 15.4702 16.6408C16.5046 17.7212 17.0218 18.9453 17.0218 20.3144C17.0218 21.6248 16.7891 22.7692 16.3236 23.7477C15.8581 24.7274 15.218 25.493 14.4047 26.047C13.5901 26.6009 12.6901 27.0124 11.7047 27.2802C10.7182 27.548 9.64879 27.6825 8.49798 27.6825C7.51138 27.6825 6.54288 27.5794 5.59119 27.3743C4.64209 27.1731 3.84815 26.9196 3.20678 26.6165C2.56801 26.3109 1.9926 26.009 1.47926 25.7125C0.968505 25.4173 0.594808 25.1678 0.356884 24.9652L0 24.6622L2.57577 20.283C2.7956 20.4686 3.09817 20.7051 3.48092 20.9937C3.86366 21.2798 4.54252 21.6626 5.51877 22.1434C6.49762 22.6216 7.36268 22.8593 8.11524 22.8593C10.2876 22.8593 11.3737 22.1121 11.3737 20.6175C11.3737 20.304 11.2962 20.014 11.141 19.7448C10.9858 19.477 10.7117 19.2092 10.3187 18.9401C9.92549 18.6723 9.57894 18.4594 9.27903 18.3026C8.97901 18.1458 8.48505 17.908 7.79974 17.5866C7.11312 17.2627 6.60624 17.0171 6.2791 16.8498C4.90587 16.1679 3.84556 15.3135 3.09817 14.2893C2.34948 13.265 1.97579 12.1624 1.97579 10.9814C1.97579 8.93038 2.72318 7.25426 4.22055 5.95438C5.72049 4.6519 7.42862 4 9.34619 4Z" fill="black"/>
<mask id="mask0_171_218" style="mask-type:alpha" maskUnits="userSpaceOnUse" x="0" y="4" width="18" height="24">
<path d="M9.34619 4C10.5694 4 11.7668 4.18159 12.9358 4.54347C14.1073 4.90273 14.9763 5.25676 15.5426 5.60427L16.3649 6.15819L14.2806 10.3126C14.1177 10.2054 13.89 10.0643 13.5979 9.88928C13.3043 9.71161 12.756 9.47515 11.953 9.1786C11.1487 8.88335 10.3988 8.73442 9.70309 8.73442C8.84453 8.73442 8.18248 8.91993 7.71698 9.28833C7.25148 9.65805 7.01872 10.1558 7.01872 10.7829C7.01872 11.1003 7.12735 11.393 7.34458 11.6608C7.5644 11.926 7.93938 12.2121 8.46696 12.5178C8.9971 12.8209 9.46516 13.0652 9.86859 13.2494C10.272 13.4349 10.8928 13.7118 11.7306 14.0802C13.1918 14.7073 14.4383 15.5617 15.4702 16.6408C16.5046 17.7212 17.0218 18.9453 17.0218 20.3144C17.0218 21.6248 16.7891 22.7692 16.3236 23.7477C15.8581 24.7274 15.218 25.493 14.4047 26.047C13.5901 26.6009 12.6901 27.0124 11.7047 27.2802C10.7182 27.548 9.64879 27.6825 8.49798 27.6825C7.51138 27.6825 6.54288 27.5794 5.59119 27.3743C4.64209 27.1731 3.84815 26.9196 3.20678 26.6165C2.56801 26.3109 1.9926 26.009 1.47926 25.7125C0.968505 25.4173 0.594808 25.1678 0.356884 24.9652L0 24.6622L2.57577 20.283C2.7956 20.4686 3.09817 20.7051 3.48092 20.9937C3.86366 21.2798 4.54252 21.6626 5.51877 22.1434C6.49762 22.6216 7.36268 22.8593 8.11524 22.8593C10.2876 22.8593 11.3737 22.1121 11.3737 20.6175C11.3737 20.304 11.2962 20.014 11.141 19.7448C10.9858 19.477 10.7117 19.2092 10.3187 18.9401C9.92549 18.6723 9.57894 18.4594 9.27903 18.3026C8.97901 18.1458 8.48505 17.908 7.79974 17.5866C7.11312 17.2627 6.60624 17.0171 6.2791 16.8498C4.90587 16.1679 3.84556 15.3135 3.09817 14.2893C2.34948 13.265 1.97579 12.1624 1.97579 10.9814C1.97579 8.93038 2.72318 7.25426 4.22055 5.95438C5.72049 4.6519 7.42862 4 9.34619 4Z" fill="black"/>
</mask>
<g mask="url(#mask0_171_218)">
<path d="M20.0115 10.6205H16.8105C11.332 9.4069 10.1124 8.15567 8.92643 2.53983V-0.60791H8.52151V2.57259C7.33873 8.16058 6.11435 9.40854 0.645435 10.6205H-1.6897V11.0348H0.645435C6.11435 12.2451 7.33873 13.4931 8.52151 19.081V22.2043H8.92643V19.1138C10.1124 13.4996 11.332 12.2484 16.8105 11.0348H20.0115V10.6205Z" fill="white"/>
</g>
<path d="M20.9169 12.8413C22.5533 11.9893 24.3458 11.5634 26.2943 11.5634C28.2428 11.5634 29.7147 11.9809 30.7101 12.816C31.7138 13.651 32.2157 14.9037 32.2157 16.5738V26H29.5207L28.7742 24.0768H28.673C28.0235 24.9034 27.3571 25.4728 26.6739 25.7849C25.9906 26.097 25.0923 26.2531 23.9789 26.2531C22.6293 26.2531 21.558 25.865 20.7651 25.089C19.9891 24.313 19.6011 23.1953 19.6011 21.7361C19.6011 20.2768 20.1198 19.1887 21.1573 18.4717C22.1949 17.7463 23.7849 17.3456 25.9274 17.2697L28.382 17.1938V16.5738C28.382 15.1398 27.6481 14.4229 26.1804 14.4229C25.0501 14.4229 23.7216 14.7645 22.1949 15.4477L20.9169 12.8413ZM23.5613 21.7993C23.5613 22.8875 24.1855 23.4315 25.4339 23.4315C26.3365 23.4315 27.0535 23.1742 27.5849 22.6597C28.1163 22.1452 28.382 21.4619 28.382 20.61V19.4459L26.889 19.4966C25.7671 19.5303 24.932 19.7327 24.3838 20.1039C23.8355 20.475 23.5613 21.0402 23.5613 21.7993ZM36.0368 8.21042C36.0368 6.94516 36.7369 6.31253 38.1371 6.31253C39.5374 6.31253 40.2375 6.94095 40.2375 8.19777C40.2375 8.8051 40.0603 9.27324 39.7061 9.60221C39.3518 9.93118 38.8288 10.0957 38.1371 10.0957C36.7369 10.0957 36.0368 9.46725 36.0368 8.21042ZM40.0603 26H36.2013V11.8544H40.0603V26ZM48.3984 11.8544H52.3587V14.7518H48.3984V21.5716C48.3984 22.103 48.546 22.5037 48.8413 22.7736C49.1449 23.0435 49.592 23.1785 50.1824 23.1785C50.7729 23.1785 51.5489 23.0309 52.5105 22.7356V25.6078C51.5489 26.038 50.3343 26.2531 48.8666 26.2531C47.4073 26.2531 46.3192 25.8693 45.6022 25.1017C44.8936 24.3256 44.5394 23.1489 44.5394 21.5716V14.7518H42.6921V13.1196L44.8177 11.8291L45.9312 8.84306H48.3984V11.8544ZM55.7622 12.8413C57.3986 11.9893 59.1911 11.5634 61.1396 11.5634C63.0881 11.5634 64.56 11.9809 65.5554 12.816C66.5591 13.651 67.061 14.9037 67.061 16.5738V26H64.366L63.6195 24.0768H63.5183C62.8688 24.9034 62.2024 25.4728 61.5192 25.7849C60.8359 26.097 59.9376 26.2531 58.8242 26.2531C57.4746 26.2531 56.4033 25.865 55.6104 25.089C54.8344 24.313 54.4464 23.1953 54.4464 21.7361C54.4464 20.2768 54.9651 19.1887 56.0026 18.4717C57.0401 17.7463 58.6302 17.3456 60.7727 17.2697L63.2273 17.1938V16.5738C63.2273 15.1398 62.4934 14.4229 61.0257 14.4229C59.8954 14.4229 58.5669 14.7645 57.0401 15.4477L55.7622 12.8413ZM58.4066 21.7993C58.4066 22.8875 59.0308 23.4315 60.2792 23.4315C61.1818 23.4315 61.8988 23.1742 62.4302 22.6597C62.9616 22.1452 63.2273 21.4619 63.2273 20.61V19.4459L61.7343 19.4966C60.6124 19.5303 59.7773 19.7327 59.2291 20.1039C58.6808 20.475 58.4066 21.0402 58.4066 21.7993ZM87.6595 11.5887C89.2874 11.5887 90.5063 12.0062 91.3161 12.8413C92.1258 13.6764 92.5307 14.988 92.5307 16.7762V26H88.659V17.7378C88.659 16.7088 88.4861 15.9412 88.1403 15.4351C87.7944 14.929 87.2588 14.6759 86.5334 14.6759C85.5802 14.6759 84.8717 15.0175 84.4078 15.7008C83.9438 16.384 83.7119 17.4511 83.7119 18.9019V26H79.8528V17.7378C79.8528 16.7088 79.6799 15.9412 79.3341 15.4351C78.9882 14.929 78.4526 14.6759 77.7272 14.6759C76.7403 14.6759 76.0233 15.0386 75.5762 15.764C75.1292 16.4895 74.9056 17.683 74.9056 19.3447V26H71.0466V11.8544H73.9947L74.5134 13.6764H74.7285C75.1081 13.0184 75.6564 12.5081 76.3733 12.1454C77.0903 11.7742 77.9127 11.5887 78.8406 11.5887C80.9662 11.5887 82.4002 12.2846 83.1425 13.6764H83.4841C83.8637 13.0184 84.4204 12.5081 85.1543 12.1454C85.8881 11.7742 86.7232 11.5887 87.6595 11.5887ZM96.8832 12.8413C98.5196 11.9893 100.312 11.5634 102.261 11.5634C104.209 11.5634 105.681 11.9809 106.676 12.816C107.68 13.651 108.182 14.9037 108.182 16.5738V26H105.487L104.741 24.0768H104.639C103.99 24.9034 103.323 25.4728 102.64 25.7849C101.957 26.097 101.059 26.2531 99.9452 26.2531C98.5955 26.2531 97.5243 25.865 96.7314 25.089C95.9554 24.313 95.5674 23.1953 95.5674 21.7361C95.5674 20.2768 96.0861 19.1887 97.1236 18.4717C98.1611 17.7463 99.7512 17.3456 101.894 17.2697L104.348 17.1938V16.5738C104.348 15.1398 103.614 14.4229 102.147 14.4229C101.016 14.4229 99.6879 14.7645 98.1611 15.4477L96.8832 12.8413ZM99.5276 21.7993C99.5276 22.8875 100.152 23.4315 101.4 23.4315C102.303 23.4315 103.02 23.1742 103.551 22.6597C104.083 22.1452 104.348 21.4619 104.348 20.61V19.4459L102.855 19.4966C101.733 19.5303 100.898 19.7327 100.35 20.1039C99.8018 20.475 99.5276 21.0402 99.5276 21.7993Z" fill="black"/>
<path d="M111.15 6.92789H113.13V8.37647H111.15V11.786C111.15 12.0517 111.224 12.252 111.372 12.387C111.523 12.5219 111.747 12.5894 112.042 12.5894C112.337 12.5894 112.725 12.5156 113.206 12.368V13.8039C112.725 14.019 112.118 14.1265 111.384 14.1265C110.655 14.1265 110.111 13.9346 109.752 13.5509C109.398 13.1629 109.221 12.5746 109.221 11.786V8.37647H108.297V7.56045L109.36 6.91523L109.917 5.42237H111.15V6.92789ZM122.948 6.79505C123.761 6.79505 124.371 7.00379 124.776 7.42129C125.181 7.83878 125.383 8.49455 125.383 9.38858V14H123.447V9.86933C123.447 9.35484 123.361 8.97108 123.188 8.71805C123.015 8.46503 122.747 8.33851 122.385 8.33851C121.908 8.33851 121.554 8.50931 121.322 8.85089C121.09 9.19248 120.974 9.72595 120.974 10.4513V14H119.045V9.86933C119.045 9.35484 118.958 8.97108 118.785 8.71805C118.612 8.46503 118.345 8.33851 117.982 8.33851C117.489 8.33851 117.13 8.51985 116.907 8.88252C116.683 9.24519 116.571 9.84192 116.571 10.6727V14H114.642V6.92789H116.116L116.375 7.83878H116.483C116.673 7.50985 116.947 7.25471 117.305 7.07338C117.664 6.88782 118.075 6.79505 118.539 6.79505C119.601 6.79505 120.318 7.14296 120.689 7.83878H120.86C121.05 7.50985 121.328 7.25471 121.695 7.07338C122.062 6.88782 122.479 6.79505 122.948 6.79505Z" fill="black"/>
</svg>
